<?xml version="1.0" standalone="no"?><!DOCTYPE svg PUBLIC "-//W3C//DTD SVG 1.1//EN" "http://www.w3.org/Graphics/SVG/1.1/DTD/svg11.dtd"><svg t="1700635036105" class="icon" viewBox="0 0 1024 1024" version="1.1" xmlns="http://www.w3.org/2000/svg" p-id="1087" xmlns:xlink="http://www.w3.org/1999/xlink" width="200" height="200"><path d="M208.337 189.426l84.023 728.525c201.625 74.408 399.661 27.597 444.064 0l79.224-726.125c-140.425-21.605-477.695-20.406-607.311-2.4z" fill="#DDDDDD" p-id="1088"></path><path d="M864.852 200.225c-14.406-8.398 1.191-16.796-19.216-24.6 0.606-40.805-2.39-40.209-6.593-41.408-23.401-1.2-39.01-3.6-39.01-3.6s1.201 5.403-14.397-82.212c-360.662-16.202-293.453-15.002-546.69-7.208-15.607 87.616-15.002 84.016-15.002 84.016s-15.606 2.399-39.011 3.601c-4.204 1.199-7.205 0.603-6.603 41.407-20.405 7.804-4.8 16.202-19.197 24.602 113.417 30.609 643.302 38.411 705.719 5.402z" fill="#595758" p-id="1089"></path><path d="M261.527 427.489l69.297 460.993c166.321 47.079 329.673 17.462 366.301 0l65.334-459.474c-114.936-42.029-386.74-44.239-500.932-1.519z" fill="#25A7AD" p-id="1090"></path><path d="M520.754 918.271h-0.01c-66.966 0-131.266-8.598-191.121-25.534l-2.744-0.777-70.257-467.354 3.358-1.26c53.2-19.896 142.627-31.317 245.365-31.317 105.743 0 202.422 12.274 258.633 32.827l3.358 1.234-66.175 465.361-2.14 1.018c-20.915 9.98-87.821 25.802-178.267 25.802z m-185.986-33.276c58.293 16.22 120.849 24.438 185.977 24.438 86.088 0 149.947-14.313 172.35-23.972l64.48-453.509c-55.746-19.491-149.568-31.085-252.229-31.085-98.076 0-186.909 11.016-238.917 29.54l68.339 454.588z" fill="#FFFFFF" p-id="1091"></path></svg>