<?xml version="1.0" encoding="UTF-8" standalone="no"?>
<!DOCTYPE svg PUBLIC "-//W3C//DTD SVG 1.1//EN"
 "http://www.w3.org/Graphics/SVG/1.1/DTD/svg11.dtd">
<!-- Generated by graphviz version 16.1.0 (20260904.0139)
 -->
<!-- Title: DFD Pages: 1 -->
<svg width="1386pt" height="808pt"
 viewBox="0.00 0.00 1386.00 808.00" xmlns="http://www.w3.org/2000/svg" xmlns:xlink="http://www.w3.org/1999/xlink">
<g id="graph0" class="graph" transform="scale(1 1) rotate(0) translate(14.4 794.06)">
<title>DFD</title>
<polygon fill="white" stroke="none" points="-14.4,14.4 -14.4,-794.06 1371.15,-794.06 1371.15,14.4 -14.4,14.4"/>
<!-- user -->
<g id="node1" class="node">
<title>user</title>
<polygon fill="#fff2cc" stroke="#d6b656" stroke-width="1.5" points="282.75,-768.41 0,-768.41 0,-703.25 282.75,-703.25 282.75,-768.41"/>
<text xml:space="preserve" text-anchor="middle" x="141.38" y="-741.23" font-family="Tahoma" font-size="18.00">ผู้ใช้งานภายในระบบ</text>
<text xml:space="preserve" text-anchor="middle" x="141.38" y="-718.73" font-family="Tahoma" font-size="18.00">PM / SA / Dev / Tester / Admin</text>
</g>
<!-- p61 -->
<g id="node6" class="node">
<title>p61</title>
<polygon fill="#ffe6cc" stroke="#d79b00" stroke-width="2" points="797.62,-779.66 650.62,-779.66 650.62,-692 797.62,-692 797.62,-779.66"/>
<text xml:space="preserve" text-anchor="middle" x="724.12" y="-752.48" font-family="Tahoma" font-size="18.00">6.1</text>
<text xml:space="preserve" text-anchor="middle" x="724.12" y="-729.98" font-family="Tahoma" font-size="18.00">File Upload</text>
<text xml:space="preserve" text-anchor="middle" x="724.12" y="-707.48" font-family="Tahoma" font-size="18.00">and Validation</text>
</g>
<!-- user&#45;&gt;p61 -->
<!-- user&#45;&gt;p61 -->
<g id="edge10" class="edge">
<title>user&#45;&gt;p61</title>
<path fill="none" stroke="#444444" d="M292.81,-712.06C312.59,-709.69 332.62,-707.67 351.75,-706.33 443.52,-699.9 467.11,-698.17 558.75,-706.33 585.62,-708.72 614.66,-713.27 640.76,-718.09"/>
<polygon fill="#444444" stroke="#444444" points="292.54,-709.27 284.94,-713.03 293.22,-714.83 292.54,-709.27"/>
<polygon fill="#444444" stroke="#444444" points="639.99,-720.8 648.37,-719.53 641.03,-715.29 639.99,-720.8"/>
<text xml:space="preserve" text-anchor="middle" x="455.25" y="-711.58" font-family="Tahoma" font-size="15.00">upload file / upload result</text>
</g>
<!-- p62 -->
<g id="node7" class="node">
<title>p62</title>
<polygon fill="#ffe6cc" stroke="#d79b00" stroke-width="2" points="799.88,-606.66 648.38,-606.66 648.38,-519 799.88,-519 799.88,-606.66"/>
<text xml:space="preserve" text-anchor="middle" x="724.12" y="-579.48" font-family="Tahoma" font-size="18.00">6.2</text>
<text xml:space="preserve" text-anchor="middle" x="724.12" y="-556.98" font-family="Tahoma" font-size="18.00">File Download</text>
<text xml:space="preserve" text-anchor="middle" x="724.12" y="-534.48" font-family="Tahoma" font-size="18.00">and Streaming</text>
</g>
<!-- user&#45;&gt;p62 -->
<g id="edge13" class="edge">
<title>user&#45;&gt;p62</title>
<path fill="none" stroke="#444444" d="M258.26,-699.8C288.65,-690.44 321.41,-680.43 351.75,-671.33 450.05,-641.83 563.3,-608.9 638.64,-587.13"/>
<polygon fill="#444444" stroke="#444444" points="257.6,-697.07 250.78,-702.1 259.25,-702.42 257.6,-697.07"/>
<polygon fill="#444444" stroke="#444444" points="639.27,-589.86 646.18,-584.96 637.72,-584.48 639.27,-589.86"/>
<text xml:space="preserve" text-anchor="middle" x="455.25" y="-676.58" font-family="Tahoma" font-size="15.00">download request / file stream</text>
</g>
<!-- p63 -->
<g id="node8" class="node">
<title>p63</title>
<polygon fill="#ffe6cc" stroke="#d79b00" stroke-width="2" points="820.5,-433.66 627.75,-433.66 627.75,-346 820.5,-346 820.5,-433.66"/>
<text xml:space="preserve" text-anchor="middle" x="724.12" y="-406.48" font-family="Tahoma" font-size="18.00">6.3</text>
<text xml:space="preserve" text-anchor="middle" x="724.12" y="-383.98" font-family="Tahoma" font-size="18.00">File Metadata and</text>
<text xml:space="preserve" text-anchor="middle" x="724.12" y="-361.48" font-family="Tahoma" font-size="18.00">Group Management</text>
</g>
<!-- user&#45;&gt;p63 -->
<g id="edge16" class="edge">
<title>user&#45;&gt;p63</title>
<path fill="none" stroke="#444444" d="M190.8,-697C232.3,-664.55 294.31,-617.98 351.75,-582.33 438.97,-528.2 543.09,-475.16 618.86,-438.51"/>
<polygon fill="#444444" stroke="#444444" points="189.3,-694.62 184.74,-701.76 192.76,-699.02 189.3,-694.62"/>
<polygon fill="#444444" stroke="#444444" points="619.68,-441.22 625.67,-435.22 617.25,-436.18 619.68,-441.22"/>
<text xml:space="preserve" text-anchor="middle" x="455.25" y="-587.58" font-family="Tahoma" font-size="15.00">list/group files / file list, URL</text>
</g>
<!-- p64 -->
<g id="node9" class="node">
<title>p64</title>
<polygon fill="#ffe6cc" stroke="#d79b00" stroke-width="2" points="808.5,-260.66 639.75,-260.66 639.75,-173 808.5,-173 808.5,-260.66"/>
<text xml:space="preserve" text-anchor="middle" x="724.12" y="-233.48" font-family="Tahoma" font-size="18.00">6.4</text>
<text xml:space="preserve" text-anchor="middle" x="724.12" y="-210.98" font-family="Tahoma" font-size="18.00">File Deletion and</text>
<text xml:space="preserve" text-anchor="middle" x="724.12" y="-188.48" font-family="Tahoma" font-size="18.00">Lifecycle Control</text>
</g>
<!-- user&#45;&gt;p64 -->
<g id="edge18" class="edge">
<title>user&#45;&gt;p64</title>
<path fill="none" stroke="#444444" d="M164.66,-694.37C198.82,-633.6 268.96,-519.21 351.75,-442.33 435.78,-364.3 550.98,-299.42 630.69,-259.59"/>
<polygon fill="#444444" stroke="#444444" points="162.27,-692.91 160.82,-701.26 167.16,-695.64 162.27,-692.91"/>
<polygon fill="#444444" stroke="#444444" points="631.5,-262.31 637.42,-256.25 629.01,-257.3 631.5,-262.31"/>
<text xml:space="preserve" text-anchor="middle" x="455.25" y="-447.58" font-family="Tahoma" font-size="15.00">delete request / delete confirm</text>
</g>
<!-- p65 -->
<g id="node10" class="node">
<title>p65</title>
<polygon fill="#ffe6cc" stroke="#d79b00" stroke-width="2" points="819.75,-87.66 628.5,-87.66 628.5,0 819.75,0 819.75,-87.66"/>
<text xml:space="preserve" text-anchor="middle" x="724.12" y="-60.48" font-family="Tahoma" font-size="18.00">6.5</text>
<text xml:space="preserve" text-anchor="middle" x="724.12" y="-37.98" font-family="Tahoma" font-size="18.00">Report/Document</text>
<text xml:space="preserve" text-anchor="middle" x="724.12" y="-15.48" font-family="Tahoma" font-size="18.00">Generation Request</text>
</g>
<!-- user&#45;&gt;p65 -->
<g id="edge21" class="edge">
<title>user&#45;&gt;p65</title>
<path fill="none" stroke="#444444" d="M152.4,-693.47C174.92,-605.8 236.78,-401.8 351.75,-271.33 425.57,-187.55 537.81,-124.73 619.57,-86.56"/>
<polygon fill="#444444" stroke="#444444" points="149.71,-692.67 150.46,-701.11 155.14,-694.04 149.71,-692.67"/>
<polygon fill="#444444" stroke="#444444" points="620.43,-89.25 626.51,-83.35 618.08,-84.17 620.43,-89.25"/>
<text xml:space="preserve" text-anchor="middle" x="455.25" y="-276.58" font-family="Tahoma" font-size="15.00">export request / PDF file</text>
</g>
<!-- report -->
<g id="node2" class="node">
<title>report</title>
<polygon fill="#fff2cc" stroke="#d6b656" stroke-width="1.5" points="1351.12,-260.41 1147.12,-260.41 1147.12,-195.25 1351.12,-195.25 1351.12,-260.41"/>
<text xml:space="preserve" text-anchor="middle" x="1249.12" y="-233.23" font-family="Tahoma" font-size="18.00">Report Service</text>
<text xml:space="preserve" text-anchor="middle" x="1249.12" y="-210.73" font-family="Tahoma" font-size="18.00">External Microservice</text>
</g>
<!-- d6 -->
<g id="node3" class="node">
<title>d6</title>
<polygon fill="#f5f5f5" stroke="#666666" points="1313.62,-779.66 1184.62,-779.66 1184.62,-692 1313.62,-692 1313.62,-779.66"/>
<text xml:space="preserve" text-anchor="middle" x="1249.12" y="-752.48" font-family="Tahoma" font-size="18.00">D6</text>
<text xml:space="preserve" text-anchor="middle" x="1249.12" y="-729.98" font-family="Tahoma" font-size="18.00">File Storage</text>
<text xml:space="preserve" text-anchor="middle" x="1249.12" y="-707.48" font-family="Tahoma" font-size="18.00">Metadata</text>
</g>
<!-- d8 -->
<g id="node4" class="node">
<title>d8</title>
<polygon fill="#f5f5f5" stroke="#666666" points="1332,-606.66 1166.25,-606.66 1166.25,-519 1332,-519 1332,-606.66"/>
<text xml:space="preserve" text-anchor="middle" x="1249.12" y="-579.48" font-family="Tahoma" font-size="18.00">D8</text>
<text xml:space="preserve" text-anchor="middle" x="1249.12" y="-556.98" font-family="Tahoma" font-size="18.00">SeaweedFS / S3</text>
<text xml:space="preserve" text-anchor="middle" x="1249.12" y="-534.48" font-family="Tahoma" font-size="18.00">Object Files</text>
</g>
<!-- d6&#45;&gt;d8 -->
<!-- d3ext -->
<g id="node5" class="node">
<title>d3ext</title>
<polygon fill="#f5f5f5" stroke="#666666" points="1356.75,-433.66 1141.5,-433.66 1141.5,-346 1356.75,-346 1356.75,-433.66"/>
<text xml:space="preserve" text-anchor="middle" x="1249.12" y="-406.48" font-family="Tahoma" font-size="18.00">D3</text>
<text xml:space="preserve" text-anchor="middle" x="1249.12" y="-383.98" font-family="Tahoma" font-size="18.00">Customer/Project data</text>
<text xml:space="preserve" text-anchor="middle" x="1249.12" y="-361.48" font-family="Tahoma" font-size="18.00">external</text>
</g>
<!-- d8&#45;&gt;d3ext -->
<!-- d3ext&#45;&gt;report -->
<!-- p61&#45;&gt;d6 -->
<!-- p61&#45;&gt;d6 -->
<g id="edge11" class="edge">
<title>p61&#45;&gt;d6</title>
<path fill="none" stroke="#444444" d="M798.39,-719.81C826.71,-714.37 859.47,-709 889.5,-706.33 970.51,-699.12 991.45,-699.57 1072.5,-706.33 1106.43,-709.16 1143.67,-715.01 1175.09,-720.77"/>
<polygon fill="#444444" stroke="#444444" points="1174.35,-723.48 1182.73,-722.19 1175.38,-717.97 1174.35,-723.48"/>
<text xml:space="preserve" text-anchor="middle" x="981" y="-711.58" font-family="Tahoma" font-size="15.00">save metadata</text>
</g>
<!-- p61&#45;&gt;d8 -->
<g id="edge12" class="edge">
<title>p61&#45;&gt;d8</title>
<path fill="none" stroke="#444444" d="M798.3,-705.67C826.6,-694.38 859.38,-681.78 889.5,-671.33 979.71,-640.04 1084.37,-608.96 1157.26,-588.14"/>
<polygon fill="#444444" stroke="#444444" points="1157.6,-590.95 1164.53,-586.07 1156.07,-585.57 1157.6,-590.95"/>
<text xml:space="preserve" text-anchor="middle" x="981" y="-676.58" font-family="Tahoma" font-size="15.00">store bytes</text>
</g>
<!-- p61&#45;&gt;p62 -->
<!-- p62&#45;&gt;d6 -->
<g id="edge14" class="edge">
<title>p62&#45;&gt;d6</title>
<path fill="none" stroke="#444444" d="M800.68,-554.32C873.17,-549.2 984.34,-549.44 1072.5,-585.33 1100.33,-596.66 1155.65,-646.18 1196.8,-685.37"/>
<polygon fill="#444444" stroke="#444444" points="1194.72,-687.26 1202.44,-690.76 1198.6,-683.21 1194.72,-687.26"/>
<text xml:space="preserve" text-anchor="middle" x="981" y="-590.58" font-family="Tahoma" font-size="15.00">read metadata</text>
</g>
<!-- p62&#45;&gt;d8 -->
<g id="edge15" class="edge">
<title>p62&#45;&gt;d8</title>
<path fill="none" stroke="#444444" d="M777.52,-518.15C808.04,-495.1 848.5,-469.36 889.5,-457.33 967.55,-434.44 994.12,-435.6 1072.5,-457.33 1112.8,-468.5 1153.13,-491.67 1184.96,-513.45"/>
<polygon fill="#444444" stroke="#444444" points="1183.03,-515.52 1191.2,-517.79 1186.23,-510.93 1183.03,-515.52"/>
<text xml:space="preserve" text-anchor="middle" x="981" y="-462.58" font-family="Tahoma" font-size="15.00">fetch bytes</text>
</g>
<!-- p62&#45;&gt;p63 -->
<!-- p63&#45;&gt;d6 -->
<g id="edge17" class="edge">
<title>p63&#45;&gt;d6</title>
<path fill="none" stroke="#444444" d="M821.16,-368.67C897.24,-357.76 1002.08,-356.45 1072.5,-411.33 1152.16,-473.41 1089.25,-541.41 1141.5,-627.83 1154.02,-648.53 1171.27,-668.28 1188.25,-685.09"/>
<polygon fill="#444444" stroke="#444444" points="1186.21,-687.01 1193.9,-690.57 1190.11,-682.99 1186.21,-687.01"/>
<text xml:space="preserve" text-anchor="middle" x="981" y="-416.58" font-family="Tahoma" font-size="15.00">query/update metadata</text>
</g>
<!-- p63&#45;&gt;p64 -->
<!-- p64&#45;&gt;d6 -->
<g id="edge19" class="edge">
<title>p64&#45;&gt;d6</title>
<path fill="none" stroke="#444444" d="M809.5,-222.35C888.74,-232.15 1004.94,-259.14 1072.5,-333.33 1163.02,-432.72 1076.51,-510.15 1141.5,-627.83 1153.08,-648.8 1169.89,-668.5 1186.75,-685.19"/>
<polygon fill="#444444" stroke="#444444" points="1184.66,-687.07 1192.36,-690.62 1188.56,-683.04 1184.66,-687.07"/>
<text xml:space="preserve" text-anchor="middle" x="981" y="-338.58" font-family="Tahoma" font-size="15.00">remove metadata</text>
</g>
<!-- p64&#45;&gt;d8 -->
<g id="edge20" class="edge">
<title>p64&#45;&gt;d8</title>
<path fill="none" stroke="#444444" d="M809.49,-188.34C885.97,-168.24 997.83,-153.82 1072.5,-210.33 1162.53,-278.47 1084.71,-357.24 1141.5,-454.83 1153.61,-475.64 1170.66,-495.35 1187.58,-512.1"/>
<polygon fill="#444444" stroke="#444444" points="1185.51,-514 1193.21,-517.55 1189.41,-509.98 1185.51,-514"/>
<text xml:space="preserve" text-anchor="middle" x="981" y="-215.58" font-family="Tahoma" font-size="15.00">remove bytes</text>
</g>
<!-- p64&#45;&gt;p65 -->
<!-- p65&#45;&gt;report -->
<g id="edge23" class="edge">
<title>p65&#45;&gt;report</title>
<path fill="none" stroke="#444444" d="M829.69,-70.12C927.7,-94.86 1060.88,-128.79 1072.5,-133.33 1111.74,-148.68 1153.36,-170.79 1186.22,-189.76"/>
<polygon fill="#444444" stroke="#444444" points="830.53,-67.44 822.09,-68.2 829.16,-72.87 830.53,-67.44"/>
<polygon fill="#444444" stroke="#444444" points="1184.75,-192.15 1193.08,-193.75 1187.57,-187.31 1184.75,-192.15"/>
<text xml:space="preserve" text-anchor="middle" x="981" y="-138.58" font-family="Tahoma" font-size="15.00">generate report / report file</text>
</g>
<!-- p65&#45;&gt;d3ext -->
<g id="edge22" class="edge">
<title>p65&#45;&gt;d3ext</title>
<path fill="none" stroke="#444444" d="M820.61,-19.58C896.63,-6.25 1001.67,-1.93 1072.5,-56.33 1155.62,-120.17 1087.8,-191.82 1141.5,-281.83 1153.9,-302.6 1171.11,-322.37 1188.1,-339.18"/>
<polygon fill="#444444" stroke="#444444" points="1186.06,-341.1 1193.76,-344.65 1189.96,-337.08 1186.06,-341.1"/>
<text xml:space="preserve" text-anchor="middle" x="981" y="-61.58" font-family="Tahoma" font-size="15.00">query source data</text>
</g>
</g>
</svg>
