<?xml version="1.0" encoding="UTF-8" standalone="no"?>
<!DOCTYPE svg PUBLIC "-//W3C//DTD SVG 1.1//EN"
 "http://www.w3.org/Graphics/SVG/1.1/DTD/svg11.dtd">
<!-- Generated by graphviz version 16.1.0 (20260904.0139)
 -->
<!-- Title: DFD Pages: 1 -->
<svg width="1449pt" height="981pt"
 viewBox="0.00 0.00 1449.00 981.00" xmlns="http://www.w3.org/2000/svg" xmlns:xlink="http://www.w3.org/1999/xlink">
<g id="graph0" class="graph" transform="scale(1 1) rotate(0) translate(14.4 967.06)">
<title>DFD</title>
<polygon fill="white" stroke="none" points="-14.4,14.4 -14.4,-967.06 1434.15,-967.06 1434.15,14.4 -14.4,14.4"/>
<!-- user -->
<g id="node1" class="node">
<title>user</title>
<polygon fill="#fff2cc" stroke="#d6b656" stroke-width="1.5" points="282.75,-941.41 0,-941.41 0,-876.25 282.75,-876.25 282.75,-941.41"/>
<text xml:space="preserve" text-anchor="middle" x="141.38" y="-914.23" font-family="Tahoma" font-size="18.00">ผู้ใช้งานภายในระบบ</text>
<text xml:space="preserve" text-anchor="middle" x="141.38" y="-891.73" font-family="Tahoma" font-size="18.00">PM / SA / Dev / Tester / Admin</text>
</g>
<!-- p21 -->
<g id="node2" class="node">
<title>p21</title>
<polygon fill="#ffe6cc" stroke="#d79b00" stroke-width="2" points="906.75,-952.66 768,-952.66 768,-865 906.75,-865 906.75,-952.66"/>
<text xml:space="preserve" text-anchor="middle" x="837.38" y="-925.48" font-family="Tahoma" font-size="18.00">2.1</text>
<text xml:space="preserve" text-anchor="middle" x="837.38" y="-902.98" font-family="Tahoma" font-size="18.00">Chat Group</text>
<text xml:space="preserve" text-anchor="middle" x="837.38" y="-880.48" font-family="Tahoma" font-size="18.00">Management</text>
</g>
<!-- user&#45;&gt;p21 -->
<!-- user&#45;&gt;p21 -->
<g id="edge9" class="edge">
<title>user&#45;&gt;p21</title>
<path fill="none" stroke="#444444" d="M292.81,-885.06C312.59,-882.69 332.62,-880.67 351.75,-879.33 489.41,-869.68 524.74,-867.76 662.25,-879.33 693.81,-881.98 728.26,-887.3 758.12,-892.7"/>
<polygon fill="#444444" stroke="#444444" points="292.54,-882.27 284.94,-886.03 293.22,-887.83 292.54,-882.27"/>
<polygon fill="#444444" stroke="#444444" points="757.37,-895.41 765.75,-894.1 758.38,-889.9 757.37,-895.41"/>
<text xml:space="preserve" text-anchor="middle" x="507" y="-884.58" font-family="Tahoma" font-size="15.00">create/rename group / member list / group list</text>
</g>
<!-- p22 -->
<g id="node3" class="node">
<title>p22</title>
<polygon fill="#ffe6cc" stroke="#d79b00" stroke-width="2" points="923.25,-779.66 751.5,-779.66 751.5,-692 923.25,-692 923.25,-779.66"/>
<text xml:space="preserve" text-anchor="middle" x="837.38" y="-752.48" font-family="Tahoma" font-size="18.00">2.2</text>
<text xml:space="preserve" text-anchor="middle" x="837.38" y="-729.98" font-family="Tahoma" font-size="18.00">Direct and Group</text>
<text xml:space="preserve" text-anchor="middle" x="837.38" y="-707.48" font-family="Tahoma" font-size="18.00">Messaging</text>
</g>
<!-- user&#45;&gt;p22 -->
<g id="edge12" class="edge">
<title>user&#45;&gt;p22</title>
<path fill="none" stroke="#444444" d="M249.54,-872.72C282.18,-862.29 318.27,-851.31 351.75,-842.33 485.96,-806.35 643.43,-773.43 741.58,-754"/>
<polygon fill="#444444" stroke="#444444" points="249.08,-869.93 242.32,-875.04 250.79,-875.26 249.08,-869.93"/>
<polygon fill="#444444" stroke="#444444" points="742.1,-756.75 749.4,-752.45 741.01,-751.26 742.1,-756.75"/>
<text xml:space="preserve" text-anchor="middle" x="507" y="-847.58" font-family="Tahoma" font-size="15.00">send/edit message / chat message</text>
</g>
<!-- p23 -->
<g id="node4" class="node">
<title>p23</title>
<polygon fill="#ffe6cc" stroke="#d79b00" stroke-width="2" points="915.38,-606.66 759.38,-606.66 759.38,-519 915.38,-519 915.38,-606.66"/>
<text xml:space="preserve" text-anchor="middle" x="837.38" y="-579.48" font-family="Tahoma" font-size="18.00">2.3</text>
<text xml:space="preserve" text-anchor="middle" x="837.38" y="-556.98" font-family="Tahoma" font-size="18.00">Real&#45;Time Chat</text>
<text xml:space="preserve" text-anchor="middle" x="837.38" y="-534.48" font-family="Tahoma" font-size="18.00">Transport</text>
</g>
<!-- user&#45;&gt;p23 -->
<g id="edge14" class="edge">
<title>user&#45;&gt;p23</title>
<path fill="none" stroke="#444444" d="M184.33,-869.12C224.69,-832.57 288.71,-778.82 351.75,-743.33 482.76,-669.58 649.72,-615.09 749.56,-586.21"/>
<polygon fill="#444444" stroke="#444444" points="182.46,-867.03 178.44,-874.49 186.24,-871.17 182.46,-867.03"/>
<polygon fill="#444444" stroke="#444444" points="750.04,-588.98 756.95,-584.08 748.49,-583.6 750.04,-588.98"/>
<text xml:space="preserve" text-anchor="middle" x="507" y="-748.58" font-family="Tahoma" font-size="15.00">connect / connection token / push event</text>
</g>
<!-- p24 -->
<g id="node5" class="node">
<title>p24</title>
<polygon fill="#ffe6cc" stroke="#d79b00" stroke-width="2" points="927,-433.66 747.75,-433.66 747.75,-346 927,-346 927,-433.66"/>
<text xml:space="preserve" text-anchor="middle" x="837.38" y="-406.48" font-family="Tahoma" font-size="18.00">2.4</text>
<text xml:space="preserve" text-anchor="middle" x="837.38" y="-383.98" font-family="Tahoma" font-size="18.00">Project Discussion</text>
<text xml:space="preserve" text-anchor="middle" x="837.38" y="-361.48" font-family="Tahoma" font-size="18.00">Threads</text>
</g>
<!-- user&#45;&gt;p24 -->
<g id="edge16" class="edge">
<title>user&#45;&gt;p24</title>
<path fill="none" stroke="#444444" d="M159.41,-866.89C188.98,-798.93 255.95,-664.39 351.75,-585.33 466.49,-490.65 633.07,-437.05 738,-410.75"/>
<polygon fill="#444444" stroke="#444444" points="156.84,-865.79 156.25,-874.24 161.98,-868 156.84,-865.79"/>
<polygon fill="#444444" stroke="#444444" points="738.45,-413.52 745.55,-408.89 737.11,-408.09 738.45,-413.52"/>
<text xml:space="preserve" text-anchor="middle" x="507" y="-590.58" font-family="Tahoma" font-size="15.00">post/reply/comment / posts, replies</text>
</g>
<!-- p25 -->
<g id="node6" class="node">
<title>p25</title>
<polygon fill="#ffe6cc" stroke="#d79b00" stroke-width="2" points="943.5,-260.66 731.25,-260.66 731.25,-173 943.5,-173 943.5,-260.66"/>
<text xml:space="preserve" text-anchor="middle" x="837.38" y="-233.48" font-family="Tahoma" font-size="18.00">2.5</text>
<text xml:space="preserve" text-anchor="middle" x="837.38" y="-210.98" font-family="Tahoma" font-size="18.00">System Messages and</text>
<text xml:space="preserve" text-anchor="middle" x="837.38" y="-188.48" font-family="Tahoma" font-size="18.00">Localization</text>
</g>
<!-- user&#45;&gt;p25 -->
<g id="edge18" class="edge">
<title>user&#45;&gt;p25</title>
<path fill="none" stroke="#444444" d="M148.39,-866.31C164.13,-770.43 215.17,-535.35 351.75,-402.33 453.26,-303.46 612.98,-256.06 721.06,-234.2"/>
<polygon fill="#444444" stroke="#444444" points="145.63,-865.86 147.13,-874.2 151.16,-866.74 145.63,-865.86"/>
<polygon fill="#444444" stroke="#444444" points="721.59,-236.95 728.89,-232.65 720.5,-231.46 721.59,-236.95"/>
<text xml:space="preserve" text-anchor="middle" x="507" y="-407.58" font-family="Tahoma" font-size="15.00">manage system msg / translation result</text>
</g>
<!-- p26 -->
<g id="node7" class="node">
<title>p26</title>
<polygon fill="#ffe6cc" stroke="#d79b00" stroke-width="2" points="900,-87.66 774.75,-87.66 774.75,0 900,0 900,-87.66"/>
<text xml:space="preserve" text-anchor="middle" x="837.38" y="-60.48" font-family="Tahoma" font-size="18.00">2.6</text>
<text xml:space="preserve" text-anchor="middle" x="837.38" y="-37.98" font-family="Tahoma" font-size="18.00">Notification</text>
<text xml:space="preserve" text-anchor="middle" x="837.38" y="-15.48" font-family="Tahoma" font-size="18.00">Center</text>
</g>
<!-- user&#45;&gt;p26 -->
<g id="edge20" class="edge">
<title>user&#45;&gt;p26</title>
<path fill="none" stroke="#444444" d="M142.78,-866.2C146.21,-747.36 172.11,-408.68 351.75,-219.33 463.25,-101.81 659.41,-62.74 764.73,-49.93"/>
<polygon fill="#444444" stroke="#444444" points="139.98,-866.11 142.58,-874.18 145.58,-866.25 139.98,-866.11"/>
<polygon fill="#444444" stroke="#444444" points="764.89,-52.73 772.51,-49.02 764.24,-47.17 764.89,-52.73"/>
<text xml:space="preserve" text-anchor="middle" x="507" y="-224.58" font-family="Tahoma" font-size="15.00">get, mark read / notification feed</text>
</g>
<!-- p21&#45;&gt;p22 -->
<!-- d2 -->
<g id="node8" class="node">
<title>d2</title>
<polygon fill="#f5f5f5" stroke="#666666" points="1411.5,-952.66 1225.5,-952.66 1225.5,-865 1411.5,-865 1411.5,-952.66"/>
<text xml:space="preserve" text-anchor="middle" x="1318.5" y="-925.48" font-family="Tahoma" font-size="18.00">D2</text>
<text xml:space="preserve" text-anchor="middle" x="1318.5" y="-902.98" font-family="Tahoma" font-size="18.00">Chat / Messaging /</text>
<text xml:space="preserve" text-anchor="middle" x="1318.5" y="-880.48" font-family="Tahoma" font-size="18.00">Notification Data</text>
</g>
<!-- p21&#45;&gt;d2 -->
<!-- p21&#45;&gt;d2 -->
<g id="edge11" class="edge">
<title>p21&#45;&gt;d2</title>
<path fill="none" stroke="#444444" d="M916.63,-892.7C946.49,-887.3 980.94,-881.98 1012.5,-879.33 1072.62,-874.27 1088.14,-874.13 1148.25,-879.33 1170.32,-881.24 1193.83,-884.52 1216.08,-888.22"/>
<polygon fill="#444444" stroke="#444444" points="916.37,-889.9 909,-894.1 917.38,-895.41 916.37,-889.9"/>
<polygon fill="#444444" stroke="#444444" points="1215.36,-890.94 1223.71,-889.52 1216.29,-885.42 1215.36,-890.94"/>
<text xml:space="preserve" text-anchor="middle" x="1080.38" y="-884.58" font-family="Tahoma" font-size="15.00">group, member data</text>
</g>
<!-- d1ext -->
<g id="node9" class="node">
<title>d1ext</title>
<polygon fill="#f5f5f5" stroke="#666666" points="1419.75,-779.66 1217.25,-779.66 1217.25,-692 1419.75,-692 1419.75,-779.66"/>
<text xml:space="preserve" text-anchor="middle" x="1318.5" y="-752.48" font-family="Tahoma" font-size="18.00">D1</text>
<text xml:space="preserve" text-anchor="middle" x="1318.5" y="-729.98" font-family="Tahoma" font-size="18.00">Auth / Business Data</text>
<text xml:space="preserve" text-anchor="middle" x="1318.5" y="-707.48" font-family="Tahoma" font-size="18.00">(external)</text>
</g>
<!-- p21&#45;&gt;d1ext -->
<g id="edge10" class="edge">
<title>p21&#45;&gt;d1ext</title>
<path fill="none" stroke="#444444" d="M907.53,-883.86C986.24,-855.44 1115.82,-808.65 1208.23,-775.29"/>
<polygon fill="#444444" stroke="#444444" points="1209.05,-777.96 1215.63,-772.61 1207.15,-772.7 1209.05,-777.96"/>
<text xml:space="preserve" text-anchor="middle" x="1080.38" y="-848.16" font-family="Tahoma" font-size="15.00">business users</text>
</g>
<!-- p22&#45;&gt;p23 -->
<!-- p22&#45;&gt;p23 -->
<g id="edge15" class="edge">
<title>p22&#45;&gt;p23</title>
<path fill="none" stroke="#444444" d="M837.38,-691.13C837.38,-668.39 837.38,-640.58 837.38,-616.68"/>
<polygon fill="#444444" stroke="#444444" points="840.18,-616.9 837.38,-608.9 834.58,-616.9 840.18,-616.9"/>
<text xml:space="preserve" text-anchor="middle" x="824.62" y="-644.83" font-family="Tahoma" font-size="15.00">broadcast</text>
</g>
<!-- p22&#45;&gt;d2 -->
<g id="edge13" class="edge">
<title>p22&#45;&gt;d2</title>
<path fill="none" stroke="#444444" d="M933.3,-733.53C996.47,-735.2 1080.07,-743.67 1148.25,-772.33 1194.71,-791.86 1238.74,-828.14 1270.24,-858.39"/>
<polygon fill="#444444" stroke="#444444" points="933.7,-730.74 925.64,-733.37 933.58,-736.34 933.7,-730.74"/>
<polygon fill="#444444" stroke="#444444" points="1268,-860.12 1275.69,-863.69 1271.91,-856.11 1268,-860.12"/>
<text xml:space="preserve" text-anchor="middle" x="1080.38" y="-777.58" font-family="Tahoma" font-size="15.00">chat log</text>
</g>
<!-- p23&#45;&gt;p24 -->
<!-- p24&#45;&gt;p25 -->
<!-- p24&#45;&gt;d2 -->
<g id="edge17" class="edge">
<title>p24&#45;&gt;d2</title>
<path fill="none" stroke="#444444" d="M888.24,-440.95C905.73,-458.91 925.5,-479.25 943.5,-497.83 1034.74,-592.04 1062.85,-610.79 1148.25,-710.33 1181.19,-748.72 1184.67,-762.14 1217.25,-800.83 1233.25,-819.83 1251.54,-839.96 1268.07,-857.62"/>
<polygon fill="#444444" stroke="#444444" points="890.54,-439.31 882.96,-435.53 886.53,-443.21 890.54,-439.31"/>
<polygon fill="#444444" stroke="#444444" points="1266,-859.51 1273.52,-863.42 1270.08,-855.67 1266,-859.51"/>
<text xml:space="preserve" text-anchor="middle" x="1080.38" y="-715.58" font-family="Tahoma" font-size="15.00">discussion data</text>
</g>
<!-- p25&#45;&gt;p26 -->
<!-- p25&#45;&gt;d2 -->
<g id="edge19" class="edge">
<title>p25&#45;&gt;d2</title>
<path fill="none" stroke="#444444" d="M888.55,-268.12C905.99,-286.02 925.65,-306.27 943.5,-324.83 1035.08,-420.06 1083.83,-424.99 1148.25,-540.33 1206.65,-644.9 1159.45,-695.93 1217.25,-800.83 1228.64,-821.5 1244.84,-841.3 1260.9,-858.17"/>
<polygon fill="#444444" stroke="#444444" points="890.87,-266.5 883.28,-262.72 886.86,-270.41 890.87,-266.5"/>
<polygon fill="#444444" stroke="#444444" points="1258.64,-859.86 1266.23,-863.64 1262.65,-855.96 1258.64,-859.86"/>
<text xml:space="preserve" text-anchor="middle" x="1080.38" y="-545.58" font-family="Tahoma" font-size="15.00">messages, i18n</text>
</g>
<!-- p26&#45;&gt;d2 -->
<g id="edge21" class="edge">
<title>p26&#45;&gt;d2</title>
<path fill="none" stroke="#444444" d="M908.23,-94.21C980.9,-150.73 1091.78,-249.43 1148.25,-362.33 1236.51,-538.77 1131.06,-623.37 1217.25,-800.83 1227.41,-821.75 1243,-841.44 1258.89,-858.13"/>
<polygon fill="#444444" stroke="#444444" points="910.13,-92.13 902.08,-89.46 906.7,-96.57 910.13,-92.13"/>
<polygon fill="#444444" stroke="#444444" points="1256.56,-859.76 1264.16,-863.53 1260.57,-855.85 1256.56,-859.76"/>
<text xml:space="preserve" text-anchor="middle" x="1080.38" y="-367.58" font-family="Tahoma" font-size="15.00">notification data</text>
</g>
<!-- d2&#45;&gt;d1ext -->
</g>
</svg>
